# Blender v2.78 (sub 0) OBJ File: 'boiler.blend'
# www.blender.org
mtllib boiler.mtl
o boiler_Cylinder.001
v -0.684486 0.777631 0.509713
v -0.684486 1.746972 0.509713
v -0.684486 0.777631 -0.521477
v -0.684486 1.746972 -0.521477
v 0.000000 -0.254283 -1.194576
v 0.830322 -0.254283 -0.847389
v 0.707107 2.575472 -0.716312
v 0.000000 2.575472 -1.009205
v 0.000000 0.015476 -1.009205
v 0.707107 0.015476 -0.716312
v 1.174252 -0.254283 -0.009205
v 1.000000 2.575472 -0.009205
v 1.000000 0.015476 -0.009205
v 0.830322 -0.254283 0.828979
v 0.707107 2.575472 0.697901
v 0.707107 0.015476 0.697901
v -0.000000 -0.254283 1.176166
v -0.000000 2.575472 0.990795
v -0.000000 0.015476 0.990795
v -0.830322 -0.254283 0.828979
v -0.707107 2.575472 0.697901
v -0.707107 0.015476 0.697901
v -1.174252 -0.254283 -0.009205
v -1.000000 2.575472 -0.009205
v -1.000000 0.015476 -0.009205
v -0.830322 -0.254283 -0.847389
v -0.707107 2.575472 -0.716312
v -0.707107 0.015476 -0.716312
v -0.785057 0.777631 0.509713
v -0.787810 0.777631 -0.521477
v -1.000000 0.777631 -0.009205
v -0.787810 1.746972 -0.521477
v -1.000000 1.746972 -0.009205
v -0.785057 1.746972 0.509713
v 0.460580 2.352571 0.147747
v 0.460580 2.765037 0.147747
v 0.531291 2.352571 0.177036
v 0.531291 2.765037 0.177036
v 0.560580 2.352571 0.247747
v 0.560580 2.765037 0.247747
v 0.531291 2.352571 0.318458
v 0.531291 2.765037 0.318458
v 0.460580 2.352571 0.347747
v 0.460580 2.765037 0.347747
v 0.389870 2.352571 0.318458
v 0.389870 2.765037 0.318458
v 0.360580 2.352571 0.247747
v 0.360580 2.765037 0.247747
v 0.389870 2.352571 0.177036
v 0.389870 2.765037 0.177036
v 0.460580 2.362024 0.159393
v 0.460580 2.765037 0.162747
v 0.523056 2.362024 0.185271
v 0.520685 2.765037 0.187643
v 0.548935 2.362024 0.247747
v 0.545580 2.765037 0.247747
v 0.523056 2.362024 0.310223
v 0.520685 2.765037 0.307852
v 0.460580 2.362024 0.336102
v 0.460580 2.765037 0.332747
v 0.398104 2.362024 0.310223
v 0.400476 2.765037 0.307852
v 0.372226 2.362024 0.247747
v 0.375580 2.765037 0.247747
v 0.398104 2.362024 0.185271
v 0.400476 2.765037 0.187643
v 0.455091 2.767773 0.336077
v 0.527322 2.767773 0.304458
v 0.456266 2.760702 0.338760
v 0.528496 2.760702 0.307141
v 0.459101 2.757773 0.345238
v 0.531332 2.757773 0.313619
v 0.461937 2.760702 0.351716
v 0.534168 2.760702 0.320096
v 0.463112 2.767773 0.354399
v 0.535342 2.767773 0.322779
v 0.461937 2.774844 0.351716
v 0.534168 2.774844 0.320096
v 0.459101 2.777773 0.345238
v 0.531332 2.777773 0.313619
v 0.456266 2.774844 0.338760
v 0.528496 2.774844 0.307141
v 0.461458 2.769237 0.148210
v 0.461394 2.784581 0.163617
v 0.532169 2.769237 0.177500
v 0.521139 2.784581 0.188439
v 0.561458 2.769237 0.248210
v 0.545924 2.784581 0.248274
v 0.532169 2.769237 0.318921
v 0.521229 2.784581 0.308072
v 0.461458 2.769237 0.348210
v 0.461522 2.784581 0.332804
v 0.390747 2.769237 0.318921
v 0.401777 2.784581 0.307982
v 0.361458 2.769237 0.248210
v 0.376992 2.784581 0.248146
v 0.390747 2.769237 0.177500
v 0.401686 2.784581 0.188349
v 0.571994 2.398114 0.569686
v 0.667385 2.798427 0.597590
v 0.558596 2.396056 0.645012
v 0.653988 2.796368 0.672917
v 0.497330 2.407560 0.689419
v 0.592721 2.807873 0.717323
v 0.424083 2.425887 0.676892
v 0.519475 2.826200 0.704796
v 0.381763 2.440302 0.614770
v 0.477155 2.840615 0.642674
v 0.395161 2.442360 0.539443
v 0.490553 2.842673 0.567348
v 0.456428 2.430856 0.495037
v 0.551819 2.831169 0.522941
v 0.529674 2.412529 0.507564
v 0.625066 2.812841 0.535468
v 0.563103 2.409745 0.572950
v 0.653118 2.801591 0.600971
v 0.551266 2.407927 0.639505
v 0.641730 2.799841 0.664999
v 0.497134 2.418091 0.678740
v 0.589653 2.809620 0.702744
v 0.432418 2.434284 0.667672
v 0.527394 2.825198 0.692097
v 0.395026 2.447020 0.612784
v 0.491422 2.837450 0.639293
v 0.406864 2.448839 0.546230
v 0.502810 2.839200 0.575265
v 0.460996 2.438674 0.506995
v 0.554887 2.829422 0.537520
v 0.525712 2.422482 0.518063
v 0.617147 2.813843 0.548167
v 0.472081 2.838543 0.645351
v 0.516927 2.823460 0.708425
v 0.472499 2.846038 0.646846
v 0.517346 2.830954 0.709920
v 0.477236 2.851702 0.644832
v 0.522083 2.836618 0.707906
v 0.483517 2.852217 0.640490
v 0.528364 2.837134 0.703564
v 0.487663 2.847283 0.636362
v 0.532510 2.832199 0.699436
v 0.487245 2.839788 0.634867
v 0.532092 2.824705 0.697941
v 0.482508 2.834124 0.636881
v 0.527354 2.819041 0.699955
v 0.476226 2.833608 0.641223
v 0.521073 2.818525 0.704297
v 0.386538 2.747639 0.785906
v 0.398011 2.741502 0.768484
v 0.459698 2.761611 0.803522
v 0.459862 2.753343 0.783314
v 0.518449 2.795341 0.767908
v 0.509577 2.781886 0.753177
v 0.528377 2.829072 0.699926
v 0.518035 2.810411 0.695728
v 0.483665 2.843044 0.639399
v 0.480281 2.822208 0.644620
v 0.410506 2.829072 0.621783
v 0.418431 2.810368 0.629790
v 0.351754 2.795341 0.657397
v 0.368715 2.781825 0.659927
v 0.341826 2.761611 0.725379
v 0.360257 2.753300 0.717376
v -0.599301 -0.585426 -0.917840
v -0.643615 -0.232874 -0.813136
v -0.630719 -0.612860 -0.994705
v -0.675986 -0.245511 -0.895687
v -0.413560 -0.590916 -0.991800
v -0.303786 -0.242918 -0.948453
v -0.444978 -0.618350 -1.068666
v -0.336157 -0.248888 -1.031003
v 0.599301 -0.585426 -0.917840
v 0.643615 -0.232874 -0.813136
v 0.630719 -0.612860 -0.994705
v 0.675986 -0.245511 -0.895687
v 0.413560 -0.590916 -0.991800
v 0.303786 -0.242918 -0.948453
v 0.444978 -0.618350 -1.068666
v 0.336157 -0.248888 -1.031003
v -0.599301 -0.585426 0.917840
v -0.643615 -0.232874 0.813136
v -0.630719 -0.612860 0.994705
v -0.675986 -0.245511 0.895687
v -0.413560 -0.590916 0.991800
v -0.303786 -0.242918 0.948453
v -0.444978 -0.618350 1.068666
v -0.336157 -0.248888 1.031003
v 0.599301 -0.585426 0.917840
v 0.643615 -0.232874 0.813136
v 0.630719 -0.612860 0.994705
v 0.675986 -0.245511 0.895687
v 0.413560 -0.590916 0.991800
v 0.303786 -0.242918 0.948453
v 0.444978 -0.618350 1.068666
v 0.336157 -0.248888 1.031003
vt 0.5700 0.4313
vt 0.4827 0.4313
vt 0.4827 0.3493
vt 0.5700 0.3493
vt 0.6456 0.0281
vt 0.6541 0.0281
vt 0.6541 0.1102
vt 0.6456 0.1102
vt 0.1154 0.6992
vt 0.0281 0.6992
vt 0.0281 0.6906
vt 0.0721 0.6724
vt 0.1154 0.6904
vt 0.4456 0.0634
vt 0.4324 0.2818
vt 0.3728 0.2796
vt 0.3764 0.0605
vt 0.3100 0.2787
vt 0.3129 0.0685
vt 0.2501 0.2788
vt 0.2474 0.0577
vt 0.1896 0.2814
vt 0.1763 0.0575
vt 0.1286 0.2863
vt 0.1054 0.0635
vt 0.0630 0.2930
vt 0.0558 0.2220
vt 0.1039 0.2171
vt 0.0954 0.1341
vt 0.0513 0.1412
vt 0.0402 0.0812
vt 0.3806 0.5057
vt 0.3159 0.5057
vt 0.2701 0.4599
vt 0.2701 0.3951
vt 0.3159 0.3493
vt 0.3806 0.3493
vt 0.4264 0.3951
vt 0.4264 0.4599
vt 0.5774 0.0901
vt 0.5661 0.1475
vt 0.5243 0.1404
vt 0.5159 0.2200
vt 0.5615 0.2249
vt 0.5542 0.2930
vt 0.4913 0.2863
vt 0.5145 0.0720
vt 0.2138 0.4793
vt 0.1599 0.5332
vt 0.0832 0.5332
vt 0.0287 0.4793
vt 0.0281 0.4031
vt 0.0820 0.3493
vt 0.1587 0.3493
vt 0.2133 0.4031
vt 0.5207 0.0460
vt 0.4479 0.0349
vt 0.5894 0.0687
vt 0.0998 0.0366
vt 0.0281 0.0588
vt 0.1751 0.0281
vt 0.2506 0.0307
vt 0.3225 0.0455
vt 0.3744 0.0342
vt 0.3045 0.0459
vt 0.6176 0.4876
vt 0.6263 0.4876
vt 0.6263 0.5696
vt 0.6176 0.5696
vt 0.0281 0.5980
vt 0.0281 0.5895
vt 0.1154 0.5895
vt 0.1154 0.5982
vt 0.0721 0.6162
vt 0.5520 0.6887
vt 0.5520 0.7236
vt 0.5455 0.7236
vt 0.5455 0.6887
vt 0.7149 0.1665
vt 0.7149 0.2014
vt 0.7084 0.2014
vt 0.7084 0.1665
vt 0.6868 0.6259
vt 0.6868 0.6608
vt 0.6804 0.6608
vt 0.6804 0.6259
vt 0.7149 0.2577
vt 0.7149 0.2926
vt 0.7084 0.2926
vt 0.7084 0.2577
vt 0.2765 0.6968
vt 0.2765 0.7317
vt 0.2701 0.7317
vt 0.2701 0.6968
vt 0.1782 0.6807
vt 0.1782 0.7156
vt 0.1717 0.7156
vt 0.1717 0.6807
vt 0.7169 0.0281
vt 0.7169 0.0631
vt 0.7104 0.0631
vt 0.7104 0.0281
vt 0.6521 0.1665
vt 0.6521 0.2014
vt 0.6456 0.2014
vt 0.6456 0.1665
vt 0.7588 0.8178
vt 0.7542 0.8224
vt 0.7477 0.8224
vt 0.7431 0.8178
vt 0.7431 0.8113
vt 0.7477 0.8067
vt 0.7542 0.8067
vt 0.7588 0.8113
vt 0.0902 0.7554
vt 0.0959 0.7554
vt 0.0958 0.7895
vt 0.0903 0.7895
vt 0.7712 0.2569
vt 0.7769 0.2569
vt 0.7768 0.2910
vt 0.7713 0.2910
vt 0.7732 0.0281
vt 0.7789 0.0281
vt 0.7788 0.0623
vt 0.7733 0.0623
vt 0.7431 0.7163
vt 0.7489 0.7163
vt 0.7487 0.7504
vt 0.7432 0.7504
vt 0.6176 0.7171
vt 0.6233 0.7171
vt 0.6232 0.7512
vt 0.6177 0.7512
vt 0.7518 0.3493
vt 0.7575 0.3493
vt 0.7574 0.3834
vt 0.7519 0.3834
vt 0.7431 0.6259
vt 0.7489 0.6259
vt 0.7487 0.6600
vt 0.7432 0.6600
vt 0.7454 0.4876
vt 0.7511 0.4876
vt 0.7510 0.5217
vt 0.7455 0.5217
vt 0.6314 0.8173
vt 0.6274 0.8213
vt 0.6216 0.8213
vt 0.6176 0.8173
vt 0.6176 0.8116
vt 0.6216 0.8075
vt 0.6274 0.8075
vt 0.6314 0.8116
vt 0.0974 0.9051
vt 0.0909 0.9051
vt 0.0914 0.9039
vt 0.0969 0.9039
vt 0.3698 0.9128
vt 0.3762 0.9128
vt 0.3757 0.9140
vt 0.3702 0.9140
vt 0.2701 0.9180
vt 0.2765 0.9180
vt 0.2761 0.9192
vt 0.2705 0.9192
vt 0.0281 0.9039
vt 0.0346 0.9039
vt 0.0341 0.9051
vt 0.0286 0.9051
vt 0.8778 0.8762
vt 0.8843 0.8762
vt 0.8838 0.8774
vt 0.8783 0.8774
vt 0.5520 0.9111
vt 0.5455 0.9111
vt 0.5460 0.9099
vt 0.5515 0.9099
vt 0.9092 0.1676
vt 0.9027 0.1676
vt 0.9032 0.1665
vt 0.9087 0.1665
vt 0.8904 0.3505
vt 0.8839 0.3505
vt 0.8844 0.3493
vt 0.8899 0.3493
vt 0.6176 0.9357
vt 0.6243 0.9357
vt 0.6243 0.9363
vt 0.6176 0.9363
vt 0.0911 0.9614
vt 0.0978 0.9614
vt 0.0978 0.9620
vt 0.0911 0.9620
vt 0.9299 0.6840
vt 0.9366 0.6840
vt 0.9366 0.6846
vt 0.9299 0.6846
vt 0.8149 0.9343
vt 0.8215 0.9343
vt 0.8215 0.9349
vt 0.8149 0.9349
vt 0.5455 0.9674
vt 0.5522 0.9674
vt 0.5522 0.9680
vt 0.5455 0.9680
vt 0.9322 0.5457
vt 0.9389 0.5457
vt 0.9389 0.5463
vt 0.9322 0.5463
vt 0.6821 0.9362
vt 0.6821 0.9368
vt 0.6817 0.9373
vt 0.6810 0.9373
vt 0.6806 0.9368
vt 0.6806 0.9362
vt 0.6810 0.9357
vt 0.6817 0.9357
vt 0.9406 0.9337
vt 0.9473 0.9337
vt 0.9473 0.9343
vt 0.9406 0.9343
vt 0.9498 0.4194
vt 0.9565 0.4194
vt 0.9565 0.4200
vt 0.9498 0.4200
vt 0.3698 0.9708
vt 0.3702 0.9703
vt 0.3709 0.9703
vt 0.3713 0.9708
vt 0.3713 0.9714
vt 0.3709 0.9719
vt 0.3702 0.9719
vt 0.3698 0.9714
vt 0.4827 0.8721
vt 0.4832 0.8703
vt 0.4887 0.8703
vt 0.4892 0.8721
vt 0.5520 0.8518
vt 0.5515 0.8536
vt 0.5460 0.8536
vt 0.5455 0.8518
vt 0.8736 0.7421
vt 0.8731 0.7438
vt 0.8676 0.7438
vt 0.8672 0.7421
vt 0.6868 0.8776
vt 0.6863 0.8794
vt 0.6809 0.8794
vt 0.6804 0.8776
vt 0.1782 0.8622
vt 0.1777 0.8640
vt 0.1722 0.8640
vt 0.1717 0.8622
vt 0.3698 0.8565
vt 0.3702 0.8548
vt 0.3757 0.8548
vt 0.3762 0.8565
vt 0.8244 0.8067
vt 0.8283 0.8106
vt 0.8283 0.8161
vt 0.8244 0.8199
vt 0.8189 0.8199
vt 0.8151 0.8161
vt 0.8151 0.8106
vt 0.8189 0.8067
vt 0.8694 0.4894
vt 0.8699 0.4876
vt 0.8754 0.4876
vt 0.8759 0.4894
vt 0.7431 0.8804
vt 0.7436 0.8787
vt 0.7491 0.8787
vt 0.7496 0.8804
vt 0.3808 0.7828
vt 0.3854 0.7874
vt 0.3854 0.7939
vt 0.3808 0.7985
vt 0.3743 0.7985
vt 0.3698 0.7939
vt 0.3698 0.7874
vt 0.3743 0.7828
vt 0.6328 0.3493
vt 0.6328 0.3842
vt 0.6263 0.3842
vt 0.6263 0.3493
vt 0.1782 0.5895
vt 0.1782 0.6244
vt 0.1717 0.6244
vt 0.1717 0.5895
vt 0.6241 0.6259
vt 0.6241 0.6608
vt 0.6176 0.6608
vt 0.6176 0.6259
vt 0.6521 0.2577
vt 0.6521 0.2926
vt 0.6456 0.2926
vt 0.6456 0.2577
vt 0.6955 0.3493
vt 0.6955 0.3842
vt 0.6891 0.3842
vt 0.6891 0.3493
vt 0.6891 0.4876
vt 0.6891 0.5225
vt 0.6826 0.5225
vt 0.6826 0.4876
vt 0.3762 0.6916
vt 0.3762 0.7266
vt 0.3698 0.7266
vt 0.3698 0.6916
vt 0.4892 0.6887
vt 0.4892 0.7236
vt 0.4827 0.7236
vt 0.4827 0.6887
vt 0.2811 0.8037
vt 0.2746 0.8037
vt 0.2701 0.7991
vt 0.2701 0.7926
vt 0.2746 0.7880
vt 0.2811 0.7880
vt 0.2857 0.7926
vt 0.2857 0.7991
vt 0.6804 0.7171
vt 0.6861 0.7171
vt 0.6860 0.7512
vt 0.6805 0.7512
vt 0.8051 0.7163
vt 0.8109 0.7163
vt 0.8108 0.7504
vt 0.8052 0.7504
vt 0.4827 0.7799
vt 0.4885 0.7799
vt 0.4883 0.8140
vt 0.4828 0.8140
vt 0.8074 0.4876
vt 0.8131 0.4876
vt 0.8130 0.5217
vt 0.8075 0.5217
vt 0.1717 0.7718
vt 0.1774 0.7718
vt 0.1773 0.8060
vt 0.1718 0.8060
vt 0.8051 0.6259
vt 0.8109 0.6259
vt 0.8108 0.6600
vt 0.8052 0.6600
vt 0.7712 0.1665
vt 0.7769 0.1665
vt 0.7768 0.2006
vt 0.7713 0.2006
vt 0.0281 0.7554
vt 0.0339 0.7554
vt 0.0338 0.7895
vt 0.0283 0.7895
vt 0.8236 0.3493
vt 0.8277 0.3533
vt 0.8277 0.3591
vt 0.8236 0.3631
vt 0.8179 0.3631
vt 0.8138 0.3591
vt 0.8138 0.3533
vt 0.8179 0.3493
vt 0.1717 0.9203
vt 0.1782 0.9203
vt 0.1777 0.9215
vt 0.1722 0.9215
vt 0.9064 0.2360
vt 0.9129 0.2360
vt 0.9124 0.2371
vt 0.9069 0.2371
vt 0.8846 0.8067
vt 0.8911 0.8067
vt 0.8906 0.8079
vt 0.8851 0.8079
vt 0.8935 0.4206
vt 0.8870 0.4206
vt 0.8875 0.4194
vt 0.8930 0.4194
vt 0.9149 0.0293
vt 0.9084 0.0293
vt 0.9089 0.0281
vt 0.9144 0.0281
vt 0.4892 0.9295
vt 0.4827 0.9295
vt 0.4832 0.9284
vt 0.4887 0.9284
vt 0.8843 0.9349
vt 0.8778 0.9349
vt 0.8783 0.9337
vt 0.8838 0.9337
vt 0.9084 0.0856
vt 0.9149 0.0856
vt 0.9144 0.0868
vt 0.9089 0.0868
vt 0.9389 0.4883
vt 0.9322 0.4883
vt 0.9322 0.4876
vt 0.9389 0.4876
vt 0.9366 0.7416
vt 0.9299 0.7416
vt 0.9299 0.7409
vt 0.9366 0.7409
vt 0.7498 0.9374
vt 0.7431 0.9374
vt 0.7431 0.9367
vt 0.7498 0.9367
vt 0.9473 0.8769
vt 0.9406 0.8769
vt 0.9406 0.8762
vt 0.9473 0.8762
vt 0.0348 0.9620
vt 0.0281 0.9620
vt 0.0281 0.9614
vt 0.0348 0.9614
vt 0.9540 0.8074
vt 0.9473 0.8074
vt 0.9473 0.8067
vt 0.9540 0.8067
vt 0.9655 0.1676
vt 0.9655 0.1669
vt 0.9659 0.1665
vt 0.9666 0.1665
vt 0.9670 0.1669
vt 0.9670 0.1676
vt 0.9666 0.1680
vt 0.9659 0.1680
vt 0.9366 0.6266
vt 0.9299 0.6266
vt 0.9299 0.6259
vt 0.9366 0.6259
vt 0.9534 0.3499
vt 0.9467 0.3499
vt 0.9467 0.3493
vt 0.9534 0.3493
vt 0.9707 0.2364
vt 0.9707 0.2371
vt 0.9703 0.2375
vt 0.9696 0.2375
vt 0.9692 0.2371
vt 0.9692 0.2364
vt 0.9696 0.2360
vt 0.9703 0.2360
vt 0.2701 0.8617
vt 0.2706 0.8599
vt 0.2760 0.8599
vt 0.2765 0.8617
vt 0.0281 0.8476
vt 0.0286 0.8458
vt 0.0341 0.8458
vt 0.0346 0.8476
vt 0.8672 0.6858
vt 0.8677 0.6840
vt 0.8731 0.6840
vt 0.8736 0.6858
vt 0.8151 0.8780
vt 0.8156 0.8762
vt 0.8210 0.8762
vt 0.8215 0.8780
vt 0.8759 0.5457
vt 0.8754 0.5474
vt 0.8699 0.5475
vt 0.8694 0.5457
vt 0.0974 0.8458
vt 0.0969 0.8476
vt 0.0914 0.8476
vt 0.0909 0.8458
vt 0.8371 0.1797
vt 0.8332 0.1758
vt 0.8332 0.1703
vt 0.8371 0.1665
vt 0.8425 0.1665
vt 0.8464 0.1703
vt 0.8464 0.1758
vt 0.8425 0.1797
vt 0.8736 0.6259
vt 0.8731 0.6277
vt 0.8676 0.6277
vt 0.8672 0.6259
vt 0.6241 0.8776
vt 0.6236 0.8794
vt 0.6181 0.8794
vt 0.6176 0.8776
vt 0.5455 0.7845
vt 0.5501 0.7799
vt 0.5566 0.7799
vt 0.5611 0.7845
vt 0.5611 0.7910
vt 0.5566 0.7955
vt 0.5501 0.7955
vt 0.5455 0.7910
vt 0.4877 0.5212
vt 0.5236 0.5195
vt 0.5311 0.5293
vt 0.4827 0.5310
vt 0.5613 0.5221
vt 0.5305 0.4996
vt 0.5613 0.5058
vt 0.4950 0.4876
vt 0.5250 0.5054
vt 0.4966 0.4959
vt 0.8332 0.2360
vt 0.8501 0.2360
vt 0.8501 0.2434
vt 0.8332 0.2434
vt 0.3806 0.6331
vt 0.3698 0.6354
vt 0.3842 0.5892
vt 0.3916 0.5990
vt 0.3992 0.5620
vt 0.4149 0.5663
vt 0.4127 0.5976
vt 0.4149 0.6350
vt 0.4072 0.6313
vt 0.4056 0.6014
vt 0.8521 0.0281
vt 0.8521 0.0355
vt 0.8352 0.0355
vt 0.8352 0.0281
vt 0.5539 0.6216
vt 0.5561 0.6324
vt 0.5100 0.6179
vt 0.5198 0.6105
vt 0.4827 0.6030
vt 0.4870 0.5873
vt 0.5184 0.5894
vt 0.5558 0.5873
vt 0.5521 0.5949
vt 0.5222 0.5965
vt 0.8138 0.4268
vt 0.8138 0.4194
vt 0.8308 0.4194
vt 0.8308 0.4268
vt 0.3036 0.6355
vt 0.3020 0.5997
vt 0.3117 0.5922
vt 0.3135 0.6405
vt 0.3045 0.5620
vt 0.2820 0.5927
vt 0.2883 0.5620
vt 0.2701 0.6282
vt 0.2879 0.5983
vt 0.2784 0.6267
vt 0.8521 0.0992
vt 0.8352 0.0992
vt 0.8352 0.0918
vt 0.8521 0.0918
vn -1.0000 0.0000 0.0000
vn 0.0000 0.0000 -1.0000
vn 0.0000 -1.0000 0.0000
vn 0.3827 0.0000 -0.9239
vn 0.9239 0.0000 -0.3827
vn 0.9239 0.0000 0.3827
vn 0.3827 0.0000 0.9239
vn -0.3827 0.0000 0.9239
vn -0.9239 0.0000 0.3827
vn 0.0000 1.0000 -0.0000
vn -0.9239 0.0000 -0.3827
vn -0.3827 0.0000 -0.9239
vn -0.3253 0.5326 -0.7814
vn -0.7920 0.5160 -0.3264
vn -0.7920 0.5160 0.3264
vn -0.3253 0.5326 0.7814
vn 0.3253 0.5326 0.7814
vn 0.7920 0.5160 0.3264
vn 0.7920 0.5160 -0.3264
vn 0.3253 0.5326 -0.7814
vn 0.0000 0.0000 1.0000
vn -0.3827 -0.0077 0.9239
vn -0.9239 -0.0077 0.3827
vn -0.9239 -0.0077 -0.3827
vn -0.3827 -0.0077 -0.9239
vn 0.3827 -0.0077 -0.9239
vn 0.9239 -0.0077 -0.3827
vn 0.9239 -0.0077 0.3827
vn 0.3827 -0.0077 0.9239
vn -0.3705 -0.3827 -0.8463
vn -0.1535 -0.9239 -0.3506
vn 0.1535 -0.9239 0.3506
vn 0.3705 -0.3827 0.8463
vn 0.3705 0.3827 0.8463
vn 0.1535 0.9239 0.3506
vn 0.9161 -0.0000 -0.4010
vn -0.1535 0.9239 -0.3506
vn -0.3705 0.3827 -0.8463
vn -0.9161 -0.0000 0.4010
vn 0.2804 0.6816 -0.6759
vn 0.6742 0.6837 -0.2793
vn 0.6762 0.6816 0.2797
vn 0.2808 0.6795 0.6779
vn -0.2804 0.6816 0.6759
vn -0.6742 0.6837 0.2793
vn -0.6762 0.6816 -0.2797
vn -0.2808 0.6795 -0.6779
vn 0.9570 -0.2395 0.1637
vn 0.5529 -0.1883 0.8117
vn -0.1750 -0.0269 0.9842
vn -0.8005 0.1503 0.5802
vn -0.9570 0.2395 -0.1637
vn -0.5529 0.1883 -0.8117
vn 0.1750 0.0269 -0.9842
vn 0.8005 -0.1503 -0.5802
vn -0.2313 -0.9705 -0.0677
vn -0.9588 0.2320 -0.1642
vn -0.5547 0.1809 -0.8122
vn 0.1733 0.0194 -0.9847
vn 0.7987 -0.1578 -0.5807
vn 0.9552 -0.2469 0.1631
vn 0.5511 -0.1958 0.8111
vn -0.1768 -0.0344 0.9836
vn -0.8022 0.1428 0.5797
vn 0.2313 0.9705 0.0677
vn 0.2313 0.9705 0.0676
vn -0.8207 -0.0674 0.5674
vn -0.5417 0.6448 0.5393
vn 0.0546 0.9792 0.1953
vn 0.6189 0.7401 -0.2631
vn 0.8207 0.0674 -0.5674
vn 0.5417 -0.6448 -0.5393
vn 0.5688 -0.1913 0.7999
vn -0.0546 -0.9792 -0.1953
vn -0.6189 -0.7401 0.2631
vn -0.5688 0.1913 -0.7999
vn 0.0851 -0.9215 0.3790
vn 0.6065 -0.7341 0.3053
vn 0.8791 -0.4656 -0.1023
vn 0.7423 -0.2738 -0.6116
vn 0.2742 -0.2766 -0.9210
vn -0.2461 -0.4677 -0.8489
vn 0.2636 -0.8789 -0.3976
vn -0.5197 -0.7325 -0.4397
vn -0.3841 -0.9205 0.0713
vn -0.2636 0.8789 0.3976
vn -0.8835 -0.2261 0.4103
vn -0.3595 0.2001 -0.9114
vn 0.9170 -0.2437 -0.3159
vn 0.3547 -0.2249 0.9075
vn 0.0919 -0.9491 0.3012
vn -0.0216 0.9944 -0.1036
vn 0.8835 -0.2261 0.4103
vn 0.3595 0.2001 -0.9114
vn -0.9170 -0.2437 -0.3159
vn -0.3547 -0.2249 0.9075
vn -0.0919 -0.9491 0.3012
vn 0.0216 0.9944 -0.1036
vn -0.8835 -0.2261 -0.4103
vn -0.3595 0.2001 0.9114
vn 0.9170 -0.2437 0.3159
vn 0.3547 -0.2249 -0.9075
vn 0.0919 -0.9491 -0.3012
vn -0.0216 0.9944 0.1036
vn 0.8835 -0.2261 -0.4103
vn 0.3595 0.2001 0.9114
vn -0.9170 -0.2437 0.3159
vn -0.3547 -0.2249 -0.9075
vn -0.0919 -0.9491 -0.3012
vn 0.0216 0.9944 0.1036
usemtl Boiler
s off
f 3/1/1 1/2/1 2/3/1 4/4/1
f 1/5/2 29/6/2 34/7/2 2/8/2
f 4/9/3 2/10/3 34/11/3 33/12/3 32/13/3
f 9/14/4 8/15/4 7/16/4 10/17/4
f 10/17/5 7/16/5 12/18/5 13/19/5
f 13/19/6 12/18/6 15/20/6 16/21/6
f 16/21/7 15/20/7 18/22/7 19/23/7
f 19/23/8 18/22/8 21/24/8 22/25/8
f 22/25/9 21/24/9 24/26/9 33/27/9 34/28/9 29/29/9 31/30/9 25/31/9
f 7/32/10 8/33/10 27/34/10 24/35/10 21/36/10 18/37/10 15/38/10 12/39/10
f 25/40/11 31/41/11 30/42/11 32/43/11 33/44/11 24/45/11 27/46/11 28/47/11
f 28/47/12 27/46/12 8/15/12 9/14/12
f 5/48/3 6/49/3 11/50/3 14/51/3 17/52/3 20/53/3 23/54/3 26/55/3
f 26/56/13 28/47/13 9/14/13 5/57/13
f 23/58/14 25/40/14 28/47/14 26/56/14
f 20/59/15 22/25/15 25/31/15 23/60/15
f 17/61/16 19/23/16 22/25/16 20/59/16
f 14/62/17 16/21/17 19/23/17 17/61/17
f 11/63/18 13/19/18 16/21/18 14/62/18
f 6/64/19 10/17/19 13/19/19 11/65/19
f 5/57/20 9/14/20 10/17/20 6/64/20
f 30/66/21 3/67/21 4/68/21 32/69/21
f 29/70/10 1/71/10 3/72/10 30/73/10 31/74/10
f 35/75/4 36/76/4 38/77/4 37/78/4
f 37/79/5 38/80/5 40/81/5 39/82/5
f 39/83/6 40/84/6 42/85/6 41/86/6
f 41/87/7 42/88/7 44/89/7 43/90/7
f 43/91/8 44/92/8 46/93/8 45/94/8
f 45/95/9 46/96/9 48/97/9 47/98/9
f 47/99/11 48/100/11 50/101/11 49/102/11
f 49/103/12 50/104/12 36/105/12 35/106/12
f 35/107/3 37/108/3 39/109/3 41/110/3 43/111/3 45/112/3 47/113/3 49/114/3
f 51/115/22 53/116/22 54/117/22 52/118/22
f 53/119/23 55/120/23 56/121/23 54/122/23
f 55/123/24 57/124/24 58/125/24 56/126/24
f 57/127/25 59/128/25 60/129/25 58/130/25
f 59/131/26 61/132/26 62/133/26 60/134/26
f 61/135/27 63/136/27 64/137/27 62/138/27
f 63/139/28 65/140/28 66/141/28 64/142/28
f 65/143/29 51/144/29 52/145/29 66/146/29
f 51/147/10 65/148/10 63/149/10 61/150/10 59/151/10 57/152/10 55/153/10 53/154/10
f 38/155/10 36/156/10 52/157/10 54/158/10
f 40/159/10 38/160/10 54/161/10 56/162/10
f 42/163/10 40/164/10 56/165/10 58/166/10
f 44/167/10 42/168/10 58/169/10 60/170/10
f 46/171/10 44/172/10 60/173/10 62/174/10
f 48/175/10 46/176/10 62/177/10 64/178/10
f 50/179/10 48/180/10 64/181/10 66/182/10
f 36/183/10 50/184/10 66/185/10 52/186/10
f 67/187/30 68/188/30 70/189/30 69/190/30
f 69/191/31 70/192/31 72/193/31 71/194/31
f 71/195/32 72/196/32 74/197/32 73/198/32
f 73/199/33 74/200/33 76/201/33 75/202/33
f 75/203/34 76/204/34 78/205/34 77/206/34
f 77/207/35 78/208/35 80/209/35 79/210/35
f 70/211/36 68/212/36 82/213/36 80/214/36 78/215/36 76/216/36 74/217/36 72/218/36
f 79/219/37 80/220/37 82/221/37 81/222/37
f 81/223/38 82/224/38 68/225/38 67/226/38
f 67/227/39 69/228/39 71/229/39 73/230/39 75/231/39 77/232/39 79/233/39 81/234/39
f 83/235/40 84/236/40 86/237/40 85/238/40
f 85/239/41 86/240/41 88/241/41 87/242/41
f 87/243/42 88/244/42 90/245/42 89/246/42
f 89/247/43 90/248/43 92/249/43 91/250/43
f 91/251/44 92/252/44 94/253/44 93/254/44
f 93/255/45 94/256/45 96/257/45 95/258/45
f 86/259/10 84/260/10 98/261/10 96/262/10 94/263/10 92/264/10 90/265/10 88/266/10
f 95/267/46 96/268/46 98/269/46 97/270/46
f 97/271/47 98/272/47 84/273/47 83/274/47
f 83/275/3 85/276/3 87/277/3 89/278/3 91/279/3 93/280/3 95/281/3 97/282/3
f 99/283/48 100/284/48 102/285/48 101/286/48
f 101/287/49 102/288/49 104/289/49 103/290/49
f 103/291/50 104/292/50 106/293/50 105/294/50
f 105/295/51 106/296/51 108/297/51 107/298/51
f 107/299/52 108/300/52 110/301/52 109/302/52
f 109/303/53 110/304/53 112/305/53 111/306/53
f 111/307/54 112/308/54 114/309/54 113/310/54
f 113/311/55 114/312/55 100/313/55 99/314/55
f 99/315/56 101/316/56 103/317/56 105/318/56 107/319/56 109/320/56 111/321/56 113/322/56
f 115/323/57 117/324/57 118/325/57 116/326/57
f 117/327/58 119/328/58 120/329/58 118/330/58
f 119/331/59 121/332/59 122/333/59 120/334/59
f 121/335/60 123/336/60 124/337/60 122/338/60
f 123/339/61 125/340/61 126/341/61 124/342/61
f 125/343/62 127/344/62 128/345/62 126/346/62
f 127/347/63 129/348/63 130/349/63 128/350/63
f 129/351/64 115/352/64 116/353/64 130/354/64
f 115/355/65 129/356/65 127/357/65 125/358/65 123/359/65 121/360/65 119/361/65 117/362/65
f 102/363/66 100/364/66 116/365/66 118/366/66
f 104/367/66 102/368/66 118/369/66 120/370/66
f 106/371/66 104/372/66 120/373/66 122/374/66
f 108/375/66 106/376/66 122/377/66 124/378/66
f 110/379/65 108/380/65 124/381/65 126/382/65
f 112/383/66 110/384/66 126/385/66 128/386/66
f 114/387/66 112/388/66 128/389/66 130/390/66
f 100/391/66 114/392/66 130/393/66 116/394/66
f 131/395/67 132/396/67 134/397/67 133/398/67
f 133/399/68 134/400/68 136/401/68 135/402/68
f 135/403/69 136/404/69 138/405/69 137/406/69
f 137/407/70 138/408/70 140/409/70 139/410/70
f 139/411/71 140/412/71 142/413/71 141/414/71
f 141/415/72 142/416/72 144/417/72 143/418/72
f 134/419/73 132/420/73 146/421/73 144/422/73 142/423/73 140/424/73 138/425/73 136/426/73
f 143/427/74 144/428/74 146/429/74 145/430/74
f 145/431/75 146/432/75 132/433/75 131/434/75
f 131/435/76 133/436/76 135/437/76 137/438/76 139/439/76 141/440/76 143/441/76 145/442/76
f 147/443/77 148/444/77 150/445/77 149/446/77
f 149/447/78 150/448/78 152/449/78 151/450/78
f 151/451/79 152/452/79 154/453/79 153/454/79
f 153/455/80 154/456/80 156/457/80 155/458/80
f 155/459/81 156/460/81 158/461/81 157/462/81
f 157/463/82 158/464/82 160/465/82 159/466/82
f 150/467/83 148/468/83 162/469/83 160/470/83 158/471/83 156/472/83 154/473/83 152/474/83
f 159/475/84 160/476/84 162/477/84 161/478/84
f 161/479/85 162/480/85 148/481/85 147/482/85
f 147/483/86 149/484/86 151/485/86 153/486/86 155/487/86 157/488/86 159/489/86 161/490/86
f 163/491/87 164/492/87 166/493/87 165/494/87
f 165/495/88 166/493/88 170/496/88 169/497/88
f 169/498/89 170/496/89 168/499/89 167/500/89
f 167/500/90 168/499/90 164/492/90 163/491/90
f 165/501/91 169/502/91 167/503/91 163/504/91
f 170/496/92 166/493/92 164/492/92 168/499/92
f 171/505/93 173/506/93 174/507/93 172/508/93
f 173/509/94 177/510/94 178/511/94 174/507/94
f 177/512/95 175/513/95 176/514/95 178/511/95
f 175/513/96 171/505/96 172/508/96 176/514/96
f 173/515/97 171/516/97 175/517/97 177/518/97
f 178/511/98 176/514/98 172/508/98 174/507/98
f 179/519/99 181/520/99 182/521/99 180/522/99
f 181/523/100 185/524/100 186/525/100 182/521/100
f 185/526/101 183/527/101 184/528/101 186/525/101
f 183/527/102 179/519/102 180/522/102 184/528/102
f 181/529/103 179/530/103 183/531/103 185/532/103
f 186/525/104 184/528/104 180/522/104 182/521/104
f 187/533/105 188/534/105 190/535/105 189/536/105
f 189/537/106 190/535/106 194/538/106 193/539/106
f 193/540/107 194/538/107 192/541/107 191/542/107
f 191/542/108 192/541/108 188/534/108 187/533/108
f 189/543/109 193/544/109 191/545/109 187/546/109
f 194/538/110 190/535/110 188/534/110 192/541/110
