# MagicaVoxel @ Ephtracy

# group
g dark_altar

# material
mtllib dark_altar.mtl
usemtl palette

# normals
vn -1 0 0
vn 1 0 0
vn 0 0 1
vn 0 0 -1
vn 0 -1 0
vn 0 1 0

# texcoords
vt 0.962891 0.5
vt 0.990234 0.5
vt 0.994141 0.5

# verts
v -4 0 4
v -4 0 2
v -4 0 1
v -4 0 -0
v -4 0 -2
v -4 0 -3
v -4 0 -4
v -4 1 3
v -4 1 2
v -4 1 1
v -4 1 -1
v -4 1 -2
v -4 1 -3
v -4 2 4
v -4 2 3
v -4 2 2
v -4 2 -0
v -4 2 -1
v -4 2 -2
v -4 2 -4
v -4 3 -1
v -4 3 -2
v -4 3 -4
v -4 4 1
v -4 4 -0
v -4 4 -2
v -4 4 -4
v -4 5 4
v -4 5 3
v -4 5 2
v -4 5 1
v -4 5 -0
v -4 5 -1
v -4 5 -2
v -4 5 -4
v -4 6 4
v -4 6 3
v -4 6 2
v -4 6 1
v -4 6 -0
v -4 6 -1
v -4 6 -2
v -4 6 -3
v -4 6 -4
v -4 7 -1
v -4 7 -2
v -4 7 -3
v -4 8 4
v -4 8 3
v -4 8 2
v -4 8 1
v -4 8 -0
v -4 8 -2
v -4 8 -4
v -3 8 3
v -3 8 2
v -3 8 1
v -3 8 -0
v -3 8 -2
v -3 8 -3
v -3 9 3
v -3 9 -3
v -2 9 2
v -2 9 1
v -2 9 -1
v -2 9 -2
v -2 10 2
v -2 10 1
v -2 10 -1
v -2 10 -2
v 2 9 2
v 2 9 1
v 2 9 -1
v 2 9 -2
v 2 10 2
v 2 10 1
v 2 10 -1
v 2 10 -2
v 3 8 3
v 3 8 1
v 3 8 -0
v 3 8 -3
v 3 9 3
v 3 9 -3
v 4 0 4
v 4 0 2
v 4 0 1
v 4 0 -0
v 4 0 -1
v 4 0 -3
v 4 0 -4
v 4 1 3
v 4 1 2
v 4 1 1
v 4 1 -0
v 4 1 -1
v 4 1 -2
v 4 2 4
v 4 2 3
v 4 2 2
v 4 2 1
v 4 2 -0
v 4 2 -1
v 4 2 -2
v 4 3 1
v 4 3 -0
v 4 3 -1
v 4 4 2
v 4 4 -0
v 4 4 -3
v 4 5 4
v 4 5 3
v 4 5 2
v 4 5 1
v 4 5 -0
v 4 5 -1
v 4 5 -4
v 4 6 2
v 4 6 1
v 4 6 -1
v 4 6 -3
v 4 7 4
v 4 7 3
v 4 7 1
v 4 7 -0
v 4 7 -1
v 4 7 -3
v 4 7 -4
v 4 8 4
v 4 8 3
v 4 8 1
v 4 8 -0
v 4 8 -3
v 4 8 -4
v -4 0 4
v -4 2 4
v -4 5 4
v -4 6 4
v -4 8 4
v -3 1 4
v -3 2 4
v -3 3 4
v -3 5 4
v -3 6 4
v -3 8 4
v -2 0 4
v -2 1 4
v -2 3 4
v -2 4 4
v -2 7 4
v -2 8 4
v -1 0 4
v -1 1 4
v -1 2 4
v -1 3 4
v -1 4 4
v -1 7 4
v -1 8 4
v 0 0 4
v 0 2 4
v 0 4 4
v 0 6 4
v 1 1 4
v 1 3 4
v 1 4 4
v 1 5 4
v 1 6 4
v 2 0 4
v 2 1 4
v 2 2 4
v 2 3 4
v 2 4 4
v 2 5 4
v 2 7 4
v 2 8 4
v 3 1 4
v 3 2 4
v 3 4 4
v 4 0 4
v 4 2 4
v 4 5 4
v 4 7 4
v 4 8 4
v -3 8 3
v -3 9 3
v -2 8 3
v -1 8 3
v 2 8 3
v 3 8 3
v 3 9 3
v -2 9 2
v -2 10 2
v -1 9 2
v -1 10 2
v 1 9 2
v 1 10 2
v 2 9 2
v 2 10 2
v -2 9 -2
v -2 10 -2
v -1 9 -2
v -1 10 -2
v 1 9 -2
v 1 10 -2
v 2 9 -2
v 2 10 -2
v -3 8 -3
v -3 9 -3
v -2 8 -3
v -1 8 -3
v 1 8 -3
v 3 8 -3
v 3 9 -3
v -4 0 -4
v -4 2 -4
v -4 3 -4
v -4 4 -4
v -4 5 -4
v -4 6 -4
v -4 8 -4
v -3 0 -4
v -3 2 -4
v -3 3 -4
v -3 4 -4
v -3 5 -4
v -3 7 -4
v -3 8 -4
v -2 0 -4
v -2 2 -4
v -2 3 -4
v -2 4 -4
v -2 6 -4
v -2 7 -4
v -2 8 -4
v -1 0 -4
v -1 2 -4
v -1 3 -4
v -1 4 -4
v -1 6 -4
v -1 7 -4
v -1 8 -4
v 0 0 -4
v 0 2 -4
v 0 3 -4
v 0 5 -4
v 0 6 -4
v 0 7 -4
v 1 0 -4
v 1 1 -4
v 1 5 -4
v 1 8 -4
v 2 1 -4
v 2 2 -4
v 2 5 -4
v 2 7 -4
v 3 0 -4
v 3 2 -4
v 3 3 -4
v 3 5 -4
v 3 7 -4
v 3 8 -4
v 4 0 -4
v 4 5 -4
v 4 7 -4
v 4 8 -4
v -4 0 4
v -2 0 4
v -1 0 4
v 0 0 4
v 2 0 4
v 4 0 4
v -2 0 3
v -1 0 3
v 0 0 3
v 2 0 3
v -4 0 2
v -3 0 2
v 3 0 2
v 4 0 2
v -4 0 1
v -3 0 1
v 3 0 1
v 4 0 1
v -4 0 -0
v -3 0 -0
v 3 0 -0
v 4 0 -0
v 3 0 -1
v 4 0 -1
v -4 0 -2
v -3 0 -2
v -4 0 -3
v -3 0 -3
v -2 0 -3
v -1 0 -3
v 0 0 -3
v 1 0 -3
v 3 0 -3
v 4 0 -3
v -4 0 -4
v -3 0 -4
v -2 0 -4
v -1 0 -4
v 0 0 -4
v 1 0 -4
v 3 0 -4
v 4 0 -4
v -4 8 4
v -3 8 4
v -2 8 4
v -1 8 4
v 2 8 4
v 4 8 4
v -4 8 3
v -3 8 3
v -2 8 3
v -1 8 3
v 2 8 3
v 3 8 3
v 4 8 3
v -4 8 2
v -3 8 2
v -4 8 1
v -3 8 1
v 3 8 1
v 4 8 1
v -4 8 -0
v -3 8 -0
v 3 8 -0
v 4 8 -0
v -4 8 -2
v -3 8 -2
v -3 8 -3
v -2 8 -3
v -1 8 -3
v 1 8 -3
v 3 8 -3
v 4 8 -3
v -4 8 -4
v -3 8 -4
v -2 8 -4
v -1 8 -4
v 1 8 -4
v 3 8 -4
v 4 8 -4
v -3 9 3
v 3 9 3
v -2 9 2
v -1 9 2
v 1 9 2
v 2 9 2
v -2 9 1
v 2 9 1
v -2 9 -1
v 2 9 -1
v -2 9 -2
v -1 9 -2
v 1 9 -2
v 2 9 -2
v -3 9 -3
v 3 9 -3
v -2 10 2
v -1 10 2
v 1 10 2
v 2 10 2
v -2 10 1
v -1 10 1
v 1 10 1
v 2 10 1
v -2 10 -1
v -1 10 -1
v 1 10 -1
v 2 10 -1
v -2 10 -2
v -1 10 -2
v 1 10 -2
v 2 10 -2

# faces
f 8/3/1 2/3/1 1/3/1
f 9/2/1 3/2/1 2/2/1
f 9/3/1 2/3/1 8/3/1
f 10/3/1 4/3/1 3/3/1
f 10/2/1 3/2/1 9/2/1
f 11/2/1 5/2/1 4/2/1
f 12/3/1 6/3/1 5/3/1
f 12/2/1 5/2/1 11/2/1
f 13/2/1 7/2/1 6/2/1
f 13/3/1 6/3/1 12/3/1
f 14/3/1 8/3/1 1/3/1
f 15/2/1 9/2/1 8/2/1
f 15/3/1 8/3/1 14/3/1
f 16/3/1 10/3/1 9/3/1
f 16/2/1 9/2/1 15/2/1
f 17/3/1 4/3/1 10/3/1
f 17/3/1 10/3/1 16/3/1
f 17/2/1 11/2/1 4/2/1
f 18/3/1 12/3/1 11/3/1
f 18/2/1 11/2/1 17/2/1
f 19/2/1 13/2/1 12/2/1
f 19/3/1 12/3/1 18/3/1
f 20/2/1 7/2/1 13/2/1
f 20/2/1 13/2/1 19/2/1
f 21/2/1 19/2/1 18/2/1
f 21/3/1 18/3/1 17/3/1
f 22/3/1 20/3/1 19/3/1
f 22/2/1 19/2/1 21/2/1
f 23/3/1 20/3/1 22/3/1
f 24/2/1 17/2/1 16/2/1
f 25/3/1 21/3/1 17/3/1
f 25/2/1 17/2/1 24/2/1
f 25/3/1 22/3/1 21/3/1
f 26/2/1 23/2/1 22/2/1
f 26/3/1 22/3/1 25/3/1
f 27/2/1 23/2/1 26/2/1
f 28/2/1 15/2/1 14/2/1
f 29/3/1 16/3/1 15/3/1
f 29/2/1 15/2/1 28/2/1
f 30/2/1 24/2/1 16/2/1
f 30/3/1 16/3/1 29/3/1
f 31/3/1 25/3/1 24/3/1
f 31/2/1 24/2/1 30/2/1
f 32/2/1 26/2/1 25/2/1
f 32/3/1 25/3/1 31/3/1
f 33/2/1 26/2/1 32/2/1
f 34/3/1 27/3/1 26/3/1
f 34/2/1 26/2/1 33/2/1
f 35/3/1 27/3/1 34/3/1
f 36/3/1 29/3/1 28/3/1
f 37/2/1 30/2/1 29/2/1
f 37/3/1 29/3/1 36/3/1
f 38/3/1 31/3/1 30/3/1
f 38/2/1 30/2/1 37/2/1
f 39/2/1 32/2/1 31/2/1
f 39/3/1 31/3/1 38/3/1
f 40/3/1 33/3/1 32/3/1
f 40/2/1 32/2/1 39/2/1
f 41/2/1 34/2/1 33/2/1
f 41/3/1 33/3/1 40/3/1
f 41/2/1 35/2/1 34/2/1
f 42/2/1 35/2/1 41/2/1
f 43/2/1 35/2/1 42/2/1
f 44/2/1 35/2/1 43/2/1
f 45/2/1 41/2/1 40/2/1
f 45/3/1 42/3/1 41/3/1
f 46/2/1 43/2/1 42/2/1
f 46/3/1 42/3/1 45/3/1
f 47/3/1 44/3/1 43/3/1
f 47/2/1 43/2/1 46/2/1
f 48/2/1 37/2/1 36/2/1
f 49/3/1 38/3/1 37/3/1
f 49/2/1 37/2/1 48/2/1
f 50/2/1 39/2/1 38/2/1
f 50/3/1 38/3/1 49/3/1
f 51/3/1 40/3/1 39/3/1
f 51/2/1 39/2/1 50/2/1
f 52/2/1 46/2/1 45/2/1
f 52/3/1 40/3/1 51/3/1
f 52/2/1 45/2/1 40/2/1
f 53/3/1 47/3/1 46/3/1
f 53/2/1 46/2/1 52/2/1
f 54/3/1 44/3/1 47/3/1
f 54/3/1 47/3/1 53/3/1
f 61/2/1 56/2/1 55/2/1
f 61/2/1 60/2/1 59/2/1
f 61/2/1 59/2/1 58/2/1
f 61/2/1 58/2/1 57/2/1
f 61/2/1 57/2/1 56/2/1
f 62/2/1 60/2/1 61/2/1
f 67/1/1 64/1/1 63/1/1
f 68/3/1 65/3/1 64/3/1
f 68/1/1 64/1/1 67/1/1
f 69/1/1 66/1/1 65/1/1
f 69/3/1 65/3/1 68/3/1
f 70/1/1 66/1/1 69/1/1
f 71/1/2 72/1/2 75/1/2
f 72/3/2 73/3/2 76/3/2
f 75/1/2 72/1/2 76/1/2
f 73/1/2 74/1/2 77/1/2
f 76/3/2 73/3/2 77/3/2
f 77/1/2 74/1/2 78/1/2
f 79/2/2 80/2/2 83/2/2
f 81/2/2 82/2/2 83/2/2
f 80/2/2 81/2/2 83/2/2
f 83/2/2 82/2/2 84/2/2
f 85/3/2 86/3/2 92/3/2
f 86/2/2 87/2/2 93/2/2
f 92/3/2 86/3/2 93/3/2
f 87/3/2 88/3/2 94/3/2
f 93/2/2 87/2/2 94/2/2
f 88/2/2 89/2/2 95/2/2
f 94/3/2 88/3/2 95/3/2
f 89/3/2 90/3/2 96/3/2
f 95/2/2 89/2/2 96/2/2
f 96/3/2 90/3/2 97/3/2
f 85/3/2 92/3/2 98/3/2
f 92/2/2 93/2/2 99/2/2
f 98/3/2 92/3/2 99/3/2
f 93/3/2 94/3/2 100/3/2
f 99/2/2 93/2/2 100/2/2
f 94/3/2 95/3/2 100/3/2
f 95/3/2 96/3/2 100/3/2
f 100/3/2 96/3/2 101/3/2
f 101/3/2 96/3/2 102/3/2
f 96/2/2 97/2/2 103/2/2
f 102/3/2 96/3/2 103/3/2
f 97/3/2 90/3/2 104/3/2
f 103/2/2 97/2/2 104/2/2
f 101/3/2 102/3/2 105/3/2
f 100/2/2 101/2/2 105/2/2
f 102/2/2 103/2/2 106/2/2
f 105/3/2 102/3/2 106/3/2
f 103/3/2 104/3/2 107/3/2
f 106/2/2 103/2/2 107/2/2
f 100/2/2 105/2/2 108/2/2
f 99/3/2 100/3/2 108/3/2
f 105/2/2 106/2/2 108/2/2
f 106/3/2 107/3/2 109/3/2
f 108/2/2 106/2/2 109/2/2
f 90/2/2 91/2/2 110/2/2
f 109/3/2 107/3/2 110/3/2
f 107/3/2 104/3/2 110/3/2
f 104/3/2 90/3/2 110/3/2
f 98/2/2 99/2/2 111/2/2
f 108/3/2 109/3/2 112/3/2
f 111/2/2 99/2/2 112/2/2
f 99/3/2 108/3/2 112/3/2
f 112/3/2 109/3/2 113/3/2
f 113/3/2 109/3/2 114/3/2
f 109/2/2 110/2/2 115/2/2
f 114/3/2 109/3/2 115/3/2
f 115/2/2 110/2/2 116/2/2
f 110/2/2 91/2/2 117/2/2
f 116/2/2 110/2/2 117/2/2
f 113/3/2 114/3/2 118/3/2
f 112/2/2 113/2/2 118/2/2
f 115/2/2 116/2/2 119/2/2
f 118/3/2 114/3/2 119/3/2
f 114/2/2 115/2/2 119/2/2
f 116/3/2 117/3/2 120/3/2
f 119/2/2 116/2/2 120/2/2
f 120/3/2 117/3/2 121/3/2
f 111/3/2 112/3/2 122/3/2
f 112/2/2 118/2/2 123/2/2
f 122/3/2 112/3/2 123/3/2
f 118/2/2 119/2/2 123/2/2
f 119/3/2 120/3/2 124/3/2
f 123/2/2 119/2/2 124/2/2
f 124/3/2 120/3/2 125/3/2
f 120/2/2 121/2/2 126/2/2
f 125/3/2 120/3/2 126/3/2
f 121/3/2 117/3/2 127/3/2
f 126/2/2 121/2/2 127/2/2
f 127/3/2 117/3/2 128/3/2
f 122/2/2 123/2/2 129/2/2
f 123/3/2 124/3/2 130/3/2
f 129/2/2 123/2/2 130/2/2
f 124/2/2 125/2/2 131/2/2
f 130/3/2 124/3/2 131/3/2
f 125/3/2 126/3/2 132/3/2
f 131/2/2 125/2/2 132/2/2
f 126/3/2 127/3/2 132/3/2
f 127/2/2 128/2/2 133/2/2
f 132/3/2 127/3/2 133/3/2
f 133/2/2 128/2/2 134/2/2
f 140/3/3 136/3/3 135/3/3
f 141/2/3 137/2/3 136/2/3
f 141/3/3 136/3/3 140/3/3
f 142/2/3 137/2/3 141/2/3
f 143/3/3 138/3/3 137/3/3
f 143/2/3 137/2/3 142/2/3
f 144/2/3 139/2/3 138/2/3
f 144/3/3 138/3/3 143/3/3
f 145/2/3 139/2/3 144/2/3
f 146/3/3 140/3/3 135/3/3
f 147/2/3 142/2/3 141/2/3
f 147/3/3 140/3/3 146/3/3
f 147/2/3 141/2/3 140/2/3
f 148/3/3 143/3/3 142/3/3
f 148/2/3 142/2/3 147/2/3
f 148/3/3 145/3/3 144/3/3
f 148/3/3 144/3/3 143/3/3
f 149/3/3 145/3/3 148/3/3
f 150/3/3 145/3/3 149/3/3
f 151/3/3 145/3/3 150/3/3
f 152/2/3 147/2/3 146/2/3
f 153/3/3 148/3/3 147/3/3
f 153/2/3 147/2/3 152/2/3
f 154/3/3 148/3/3 153/3/3
f 155/2/3 149/2/3 148/2/3
f 155/3/3 148/3/3 154/3/3
f 156/3/3 150/3/3 149/3/3
f 156/2/3 149/2/3 155/2/3
f 157/2/3 151/2/3 150/2/3
f 157/3/3 150/3/3 156/3/3
f 158/2/3 151/2/3 157/2/3
f 159/3/3 154/3/3 153/3/3
f 159/3/3 153/3/3 152/3/3
f 160/2/3 155/2/3 154/2/3
f 160/3/3 154/3/3 159/3/3
f 161/3/3 156/3/3 155/3/3
f 161/2/3 157/2/3 156/2/3
f 162/2/3 157/2/3 161/2/3
f 163/2/3 160/2/3 159/2/3
f 164/2/3 155/2/3 160/2/3
f 164/2/3 160/2/3 163/2/3
f 164/3/3 161/3/3 155/3/3
f 164/3/3 162/3/3 161/3/3
f 165/3/3 162/3/3 164/3/3
f 166/3/3 162/3/3 165/3/3
f 167/2/3 157/2/3 162/2/3
f 167/3/3 162/3/3 166/3/3
f 168/2/3 163/2/3 159/2/3
f 169/3/3 164/3/3 163/3/3
f 169/2/3 163/2/3 168/2/3
f 170/3/3 164/3/3 169/3/3
f 171/2/3 165/2/3 164/2/3
f 171/3/3 164/3/3 170/3/3
f 172/3/3 166/3/3 165/3/3
f 172/2/3 165/2/3 171/2/3
f 173/2/3 167/2/3 166/2/3
f 173/3/3 166/3/3 172/3/3
f 174/2/3 157/2/3 167/2/3
f 174/2/3 167/2/3 173/2/3
f 174/3/3 158/3/3 157/3/3
f 175/3/3 158/3/3 174/3/3
f 176/3/3 169/3/3 168/3/3
f 176/2/3 170/2/3 169/2/3
f 177/3/3 171/3/3 170/3/3
f 177/2/3 170/2/3 176/2/3
f 177/3/3 172/3/3 171/3/3
f 178/2/3 173/2/3 172/2/3
f 178/3/3 172/3/3 177/3/3
f 179/3/3 177/3/3 176/3/3
f 179/3/3 176/3/3 168/3/3
f 180/2/3 178/2/3 177/2/3
f 180/3/3 177/3/3 179/3/3
f 181/2/3 173/2/3 178/2/3
f 181/2/3 178/2/3 180/2/3
f 181/3/3 174/3/3 173/3/3
f 182/2/3 175/2/3 174/2/3
f 182/3/3 174/3/3 181/3/3
f 183/2/3 175/2/3 182/2/3
f 186/2/3 185/2/3 184/2/3
f 187/2/3 185/2/3 186/2/3
f 188/2/3 185/2/3 187/2/3
f 189/2/3 185/2/3 188/2/3
f 190/2/3 185/2/3 189/2/3
f 193/1/3 192/1/3 191/1/3
f 194/1/3 192/1/3 193/1/3
f 195/3/3 194/3/3 193/3/3
f 196/3/3 194/3/3 195/3/3
f 197/1/3 196/1/3 195/1/3
f 198/1/3 196/1/3 197/1/3
f 199/1/4 200/1/4 201/1/4
f 201/1/4 200/1/4 202/1/4
f 201/3/4 202/3/4 203/3/4
f 203/3/4 202/3/4 204/3/4
f 203/1/4 204/1/4 205/1/4
f 205/1/4 204/1/4 206/1/4
f 207/2/4 208/2/4 209/2/4
f 209/2/4 208/2/4 210/2/4
f 210/2/4 208/2/4 211/2/4
f 211/2/4 208/2/4 212/2/4
f 212/2/4 208/2/4 213/2/4
f 214/2/4 215/2/4 221/2/4
f 215/3/4 216/3/4 222/3/4
f 221/2/4 215/2/4 222/2/4
f 216/2/4 217/2/4 223/2/4
f 222/3/4 216/3/4 223/3/4
f 217/3/4 218/3/4 224/3/4
f 223/2/4 217/2/4 224/2/4
f 218/2/4 219/2/4 225/2/4
f 224/3/4 218/3/4 225/3/4
f 219/3/4 220/3/4 226/3/4
f 226/3/4 220/3/4 227/3/4
f 221/3/4 222/3/4 228/3/4
f 222/2/4 223/2/4 229/2/4
f 228/3/4 222/3/4 229/3/4
f 223/2/4 224/2/4 229/2/4
f 224/2/4 225/2/4 229/2/4
f 229/2/4 225/2/4 230/2/4
f 230/2/4 225/2/4 231/2/4
f 225/2/4 219/2/4 232/2/4
f 231/2/4 225/2/4 232/2/4
f 219/3/4 226/3/4 232/3/4
f 226/2/4 227/2/4 233/2/4
f 232/3/4 226/3/4 233/3/4
f 233/2/4 227/2/4 234/2/4
f 228/2/4 229/2/4 235/2/4
f 229/3/4 230/3/4 236/3/4
f 235/2/4 229/2/4 236/2/4
f 230/2/4 231/2/4 237/2/4
f 236/3/4 230/3/4 237/3/4
f 231/3/4 232/3/4 238/3/4
f 237/2/4 231/2/4 238/2/4
f 232/2/4 233/2/4 239/2/4
f 238/3/4 232/3/4 239/3/4
f 233/3/4 234/3/4 240/3/4
f 239/2/4 233/2/4 240/2/4
f 240/3/4 234/3/4 241/3/4
f 235/3/4 236/3/4 242/3/4
f 236/2/4 237/2/4 243/2/4
f 242/3/4 236/3/4 243/3/4
f 237/2/4 238/2/4 243/2/4
f 238/2/4 239/2/4 243/2/4
f 243/2/4 239/2/4 244/2/4
f 244/2/4 239/2/4 245/2/4
f 239/3/4 240/3/4 246/3/4
f 245/2/4 239/2/4 246/2/4
f 240/2/4 241/2/4 247/2/4
f 246/3/4 240/3/4 247/3/4
f 242/2/4 243/2/4 248/2/4
f 243/2/4 244/2/4 248/2/4
f 248/2/4 244/2/4 249/2/4
f 245/2/4 246/2/4 250/2/4
f 244/3/4 245/3/4 250/3/4
f 246/2/4 247/2/4 250/2/4
f 247/2/4 241/2/4 251/2/4
f 250/2/4 247/2/4 251/2/4
f 249/2/4 244/2/4 252/2/4
f 248/3/4 249/3/4 252/3/4
f 252/2/4 244/2/4 253/2/4
f 250/3/4 251/3/4 254/3/4
f 244/3/4 250/3/4 254/3/4
f 254/3/4 251/3/4 255/3/4
f 252/3/4 253/3/4 256/3/4
f 248/3/4 252/3/4 256/3/4
f 253/2/4 244/2/4 257/2/4
f 256/3/4 253/3/4 257/3/4
f 244/3/4 254/3/4 258/3/4
f 257/2/4 244/2/4 258/2/4
f 254/2/4 255/2/4 259/2/4
f 258/3/4 254/3/4 259/3/4
f 255/3/4 251/3/4 260/3/4
f 259/2/4 255/2/4 260/2/4
f 260/3/4 251/3/4 261/3/4
f 258/2/4 259/2/4 262/2/4
f 257/2/4 258/2/4 262/2/4
f 256/2/4 257/2/4 262/2/4
f 259/3/4 260/3/4 263/3/4
f 262/2/4 259/2/4 263/2/4
f 260/2/4 261/2/4 264/2/4
f 263/3/4 260/3/4 264/3/4
f 264/2/4 261/2/4 265/2/4
f 272/3/5 267/3/5 266/3/5
f 272/2/5 268/2/5 267/2/5
f 273/3/5 269/3/5 268/3/5
f 273/2/5 268/2/5 272/2/5
f 274/2/5 270/2/5 269/2/5
f 274/3/5 269/3/5 273/3/5
f 275/3/5 271/3/5 270/3/5
f 275/2/5 270/2/5 274/2/5
f 276/3/5 274/3/5 273/3/5
f 276/3/5 273/3/5 272/3/5
f 276/3/5 275/3/5 274/3/5
f 276/3/5 272/3/5 266/3/5
f 277/3/5 275/3/5 276/3/5
f 278/3/5 271/3/5 275/3/5
f 278/3/5 275/3/5 277/3/5
f 279/3/5 271/3/5 278/3/5
f 280/2/5 277/2/5 276/2/5
f 281/3/5 278/3/5 277/3/5
f 281/2/5 277/2/5 280/2/5
f 282/2/5 279/2/5 278/2/5
f 282/3/5 278/3/5 281/3/5
f 283/2/5 279/2/5 282/2/5
f 284/3/5 281/3/5 280/3/5
f 284/3/5 282/3/5 281/3/5
f 284/3/5 283/3/5 282/3/5
f 285/3/5 283/3/5 284/3/5
f 286/3/5 283/3/5 285/3/5
f 287/3/5 283/3/5 286/3/5
f 288/3/5 286/3/5 285/3/5
f 288/2/5 287/2/5 286/2/5
f 289/2/5 287/2/5 288/2/5
f 290/2/5 285/2/5 284/2/5
f 291/3/5 288/3/5 285/3/5
f 291/2/5 285/2/5 290/2/5
f 291/3/5 289/3/5 288/3/5
f 292/3/5 291/3/5 290/3/5
f 293/3/5 289/3/5 291/3/5
f 293/3/5 291/3/5 292/3/5
f 294/3/5 289/3/5 293/3/5
f 295/3/5 289/3/5 294/3/5
f 296/3/5 289/3/5 295/3/5
f 297/3/5 289/3/5 296/3/5
f 298/3/5 289/3/5 297/3/5
f 299/3/5 289/3/5 298/3/5
f 300/2/5 293/2/5 292/2/5
f 301/3/5 294/3/5 293/3/5
f 301/2/5 293/2/5 300/2/5
f 302/2/5 295/2/5 294/2/5
f 302/3/5 294/3/5 301/3/5
f 303/3/5 296/3/5 295/3/5
f 303/2/5 295/2/5 302/2/5
f 304/2/5 297/2/5 296/2/5
f 304/3/5 296/3/5 303/3/5
f 305/3/5 298/3/5 297/3/5
f 305/2/5 297/2/5 304/2/5
f 306/2/5 299/2/5 298/2/5
f 306/3/5 298/3/5 305/3/5
f 307/2/5 299/2/5 306/2/5
f 308/2/6 309/2/6 314/2/6
f 309/3/6 310/3/6 315/3/6
f 314/2/6 309/2/6 315/2/6
f 310/2/6 311/2/6 316/2/6
f 315/3/6 310/3/6 316/3/6
f 311/3/6 312/3/6 317/3/6
f 316/2/6 311/2/6 317/2/6
f 312/2/6 313/2/6 318/2/6
f 317/3/6 312/3/6 318/3/6
f 318/2/6 313/2/6 319/2/6
f 319/2/6 313/2/6 320/2/6
f 314/3/6 315/3/6 321/3/6
f 321/3/6 315/3/6 322/3/6
f 321/2/6 322/2/6 323/2/6
f 323/2/6 322/2/6 324/2/6
f 319/3/6 320/3/6 325/3/6
f 325/3/6 320/3/6 326/3/6
f 323/3/6 324/3/6 327/3/6
f 327/3/6 324/3/6 328/3/6
f 325/2/6 326/2/6 329/2/6
f 329/2/6 326/2/6 330/2/6
f 327/2/6 328/2/6 331/2/6
f 331/2/6 328/2/6 332/2/6
f 331/3/6 332/3/6 333/3/6
f 329/3/6 330/3/6 337/3/6
f 337/3/6 330/3/6 338/3/6
f 331/3/6 333/3/6 339/3/6
f 333/2/6 334/2/6 340/2/6
f 339/3/6 333/3/6 340/3/6
f 334/3/6 335/3/6 341/3/6
f 340/2/6 334/2/6 341/2/6
f 335/2/6 336/2/6 342/2/6
f 341/3/6 335/3/6 342/3/6
f 336/3/6 337/3/6 343/3/6
f 342/2/6 336/2/6 343/2/6
f 337/2/6 338/2/6 344/2/6
f 343/3/6 337/3/6 344/3/6
f 344/2/6 338/2/6 345/2/6
f 346/2/6 347/2/6 348/2/6
f 348/2/6 347/2/6 349/2/6
f 349/2/6 347/2/6 350/2/6
f 350/2/6 347/2/6 351/2/6
f 346/2/6 348/2/6 352/2/6
f 351/2/6 347/2/6 353/2/6
f 346/2/6 352/2/6 354/2/6
f 353/2/6 347/2/6 355/2/6
f 346/2/6 354/2/6 356/2/6
f 355/2/6 347/2/6 359/2/6
f 357/2/6 358/2/6 360/2/6
f 358/2/6 359/2/6 360/2/6
f 346/2/6 356/2/6 360/2/6
f 356/2/6 357/2/6 360/2/6
f 359/2/6 347/2/6 361/2/6
f 360/2/6 359/2/6 361/2/6
f 362/1/6 363/1/6 366/1/6
f 363/3/6 364/3/6 367/3/6
f 366/1/6 363/1/6 367/1/6
f 364/1/6 365/1/6 368/1/6
f 367/3/6 364/3/6 368/3/6
f 368/1/6 365/1/6 369/1/6
f 366/3/6 367/3/6 370/3/6
f 367/2/6 368/2/6 371/2/6
f 370/3/6 367/3/6 371/3/6
f 368/3/6 369/3/6 372/3/6
f 371/2/6 368/2/6 372/2/6
f 372/3/6 369/3/6 373/3/6
f 370/1/6 371/1/6 374/1/6
f 371/3/6 372/3/6 375/3/6
f 374/1/6 371/1/6 375/1/6
f 372/1/6 373/1/6 376/1/6
f 375/3/6 372/3/6 376/3/6
f 376/1/6 373/1/6 377/1/6
